<svg width="180" height="180" viewBox="0 0 180 180" fill="none" xmlns="http://www.w3.org/2000/svg">
<path d="M90 180C139.706 180 180 139.706 180 90C180 40.2944 139.706 0 90 0C40.2944 0 0 40.2944 0 90C0 139.706 40.2944 180 90 180Z" fill="#00DE5A"/>
<path d="M64.0552 60.917L54.498 85.2855H62.6238L63.7809 82.0626H72.9352L74.0924 85.2855H82.2181L72.6609 60.917H64.0552ZM65.6324 76.2083L68.3581 68.597L71.0838 76.2083H65.6324Z" fill="black"/>
<path d="M116.007 76.0283H127.116V70.174H116.007V66.8913H127.236V60.917H108.25V85.2855H127.476V79.3112H116.007V76.0283Z" fill="black"/>
<path d="M91.8874 76.9369L86.1531 60.917H78.0273L87.5845 85.2855H96.1816L105.739 60.917H97.6131L91.8874 76.9369Z" fill="black"/>
<path d="M44.1087 73.9627L35.0316 60.917H27.5059V85.2855H35.3916V72.2484L44.4687 85.2855H51.9944V60.917H44.1087V73.9627Z" fill="black"/>
<path d="M148.303 76.9284L149.041 76.6197C151.869 75.4368 153.309 72.8741 153.309 69.6169C153.309 66.5398 152.186 64.2598 149.975 62.8456C147.918 61.5341 145.252 60.917 141.575 60.917H131.289V85.2855H138.935V78.4798H141.678L146.332 85.2855H154.458L148.303 76.9284ZM142.998 72.2656H138.815V67.1313H142.998C144.412 67.1313 145.569 68.2798 145.569 69.7027C145.569 71.1256 144.42 72.2656 142.998 72.2656Z" fill="black"/>
<path d="M126.292 100.234L119.521 115.671L111.858 100.234H105.961L116.821 121.645L112.347 131.64H118.064L132.009 100.225H126.292V100.234ZM102.704 124.097H97.1065V121.868C95.0837 123.617 92.6665 124.586 89.7437 124.586C83.0408 124.586 77.8036 119.134 77.8036 112.165C77.8036 105.197 83.0408 99.7454 89.7437 99.7454C92.6665 99.7454 95.0922 100.714 97.1065 102.463V100.234H102.704V124.097ZM97.758 112.165C97.758 107.665 94.6208 104.254 90.4551 104.254C86.2894 104.254 83.1523 107.665 83.1523 112.165C83.1523 116.665 86.2894 120.077 90.4551 120.077C94.6208 120.077 97.758 116.665 97.758 112.165ZM49.9551 131.648H55.8008V122.074C57.7722 123.694 60.1208 124.586 62.9237 124.586C69.6265 124.586 74.8636 119.134 74.8636 112.165C74.8636 105.197 69.6265 99.7454 62.9237 99.7454C60.0008 99.7454 57.5751 100.714 55.5608 102.463V100.234H49.9637V131.648H49.9551ZM62.2037 104.254C66.3694 104.254 69.5065 107.665 69.5065 112.165C69.5065 116.665 66.3694 120.077 62.2037 120.077C58.038 120.077 54.9008 116.665 54.9008 112.165C54.9008 107.665 58.038 104.254 62.2037 104.254Z" fill="black"/>
</svg>
